{
  "version": "1.1.3",
  "modules": [
    {
      "id": 25,
      "plugin": "Core",
      "version": "1.1.3",
      "model": "AudioInterface",
      "params": [],
      "leftModuleId": 115,
      "data": {
        "audio": {
          "driver": 7,
          "deviceName": "ReaRoute ASIO (x64)",
          "offset": 0,
          "maxChannels": 8,
          "sampleRate": 44100,
          "blockSize": 128
        }
      },
      "pos": [
        67,
        0
      ]
    },
    {
      "id": 112,
      "plugin": "Fundamental",
      "version": "1.2.0",
      "model": "SEQ3",
      "params": [
        {
          "id": 0,
          "value": 2.7200036
        },
        {
          "id": 1,
          "value": 0.0
        },
        {
          "id": 2,
          "value": 0.0
        },
        {
          "id": 3,
          "value": 7.0
        },
        {
          "id": 4,
          "value": 0.0
        },
        {
          "id": 5,
          "value": 0.314999998
        },
        {
          "id": 6,
          "value": 0.855000019
        },
        {
          "id": 7,
          "value": 0.555000007
        },
        {
          "id": 8,
          "value": 1.20000005
        },
        {
          "id": 9,
          "value": 0.24000001
        },
        {
          "id": 10,
          "value": 0.360000014
        },
        {
          "id": 11,
          "value": 0.88500011
        },
        {
          "id": 12,
          "value": 10.0
        },
        {
          "id": 13,
          "value": 0.0
        },
        {
          "id": 14,
          "value": 0.0
        },
        {
          "id": 15,
          "value": 0.0
        },
        {
          "id": 16,
          "value": 0.0
        },
        {
          "id": 17,
          "value": 0.0
        },
        {
          "id": 18,
          "value": 0.0
        },
        {
          "id": 19,
          "value": 0.0
        },
        {
          "id": 20,
          "value": 0.0
        },
        {
          "id": 21,
          "value": 0.0
        },
        {
          "id": 22,
          "value": 0.0
        },
        {
          "id": 23,
          "value": 0.0
        },
        {
          "id": 24,
          "value": 0.0
        },
        {
          "id": 25,
          "value": 0.0
        },
        {
          "id": 26,
          "value": 0.0
        },
        {
          "id": 27,
          "value": 0.0
        },
        {
          "id": 28,
          "value": 0.0
        },
        {
          "id": 29,
          "value": 0.0
        },
        {
          "id": 30,
          "value": 0.0
        },
        {
          "id": 31,
          "value": 0.0
        },
        {
          "id": 32,
          "value": 0.0
        },
        {
          "id": 33,
          "value": 0.0
        },
        {
          "id": 34,
          "value": 0.0
        },
        {
          "id": 35,
          "value": 0.0
        }
      ],
      "rightModuleId": 116,
      "data": {
        "running": true,
        "gates": [
          1,
          0,
          1,
          0,
          1,
          1,
          1,
          1
        ]
      },
      "pos": [
        0,
        0
      ]
    },
    {
      "id": 113,
      "plugin": "Fundamental",
      "version": "1.2.0",
      "model": "VCO",
      "params": [
        {
          "id": 0,
          "value": 1.0
        },
        {
          "id": 1,
          "value": 1.0
        },
        {
          "id": 2,
          "value": 0.0
        },
        {
          "id": 3,
          "value": 0.0
        },
        {
          "id": 4,
          "value": 0.0
        },
        {
          "id": 5,
          "value": 0.5
        },
        {
          "id": 6,
          "value": 0.0
        }
      ],
      "leftModuleId": 116,
      "rightModuleId": 117,
      "pos": [
        25,
        0
      ]
    },
    {
      "id": 114,
      "plugin": "Fundamental",
      "version": "1.2.0",
      "model": "Scope",
      "params": [
        {
          "id": 0,
          "value": 0.0
        },
        {
          "id": 1,
          "value": 0.0
        },
        {
          "id": 2,
          "value": 0.0
        },
        {
          "id": 3,
          "value": 0.0
        },
        {
          "id": 4,
          "value": 9.84500027
        },
        {
          "id": 5,
          "value": 0.0
        },
        {
          "id": 6,
          "value": 0.0
        },
        {
          "id": 7,
          "value": 0.0
        }
      ],
      "leftModuleId": 117,
      "data": {
        "lissajous": 0,
        "external": 0
      },
      "pos": [
        43,
        0
      ]
    },
    {
      "id": 115,
      "plugin": "Fundamental",
      "version": "1.2.0",
      "model": "VCMixer",
      "params": [
        {
          "id": 0,
          "value": 0.0
        },
        {
          "id": 1,
          "value": 1.0
        },
        {
          "id": 2,
          "value": 1.0
        },
        {
          "id": 3,
          "value": 1.0
        },
        {
          "id": 4,
          "value": 1.0
        }
      ],
      "rightModuleId": 25,
      "pos": [
        57,
        0
      ]
    },
    {
      "id": 116,
      "plugin": "Fundamental",
      "version": "1.2.0",
      "model": "Quantizer",
      "params": [],
      "leftModuleId": 112,
      "rightModuleId": 113,
      "data": {
        "enabledNotes": [
          true,
          false,
          true,
          false,
          true,
          true,
          false,
          true,
          false,
          true,
          false,
          true
        ]
      },
      "pos": [
        22,
        0
      ]
    },
    {
      "id": 117,
      "plugin": "Fundamental",
      "version": "1.2.0",
      "model": "ADSR",
      "params": [
        {
          "id": 0,
          "value": 0.0
        },
        {
          "id": 1,
          "value": 0.291499823
        },
        {
          "id": 2,
          "value": 0.408499956
        },
        {
          "id": 3,
          "value": 0.289999783
        }
      ],
      "leftModuleId": 113,
      "rightModuleId": 114,
      "pos": [
        35,
        0
      ]
    }
  ],
  "cables": [
    {
      "id": 265,
      "outputModuleId": 113,
      "outputId": 1,
      "inputModuleId": 115,
      "inputId": 1,
      "color": "#c91847"
    },
    {
      "id": 266,
      "outputModuleId": 115,
      "outputId": 0,
      "inputModuleId": 25,
      "inputId": 0,
      "color": "#c91847"
    },
    {
      "id": 267,
      "outputModuleId": 115,
      "outputId": 0,
      "inputModuleId": 25,
      "inputId": 1,
      "color": "#c91847"
    },
    {
      "id": 264,
      "outputModuleId": 112,
      "outputId": 1,
      "inputModuleId": 116,
      "inputId": 0,
      "color": "#c9b70e"
    },
    {
      "id": 269,
      "outputModuleId": 116,
      "outputId": 0,
      "inputModuleId": 113,
      "inputId": 0,
      "color": "#c9b70e"
    },
    {
      "id": 270,
      "outputModuleId": 112,
      "outputId": 0,
      "inputModuleId": 117,
      "inputId": 4,
      "color": "#0986ad"
    },
    {
      "id": 271,
      "outputModuleId": 112,
      "outputId": 0,
      "inputModuleId": 114,
      "inputId": 1,
      "color": "#0986ad"
    },
    {
      "id": 272,
      "outputModuleId": 117,
      "outputId": 0,
      "inputModuleId": 114,
      "inputId": 0,
      "color": "#0c8e15"
    },
    {
      "id": 273,
      "outputModuleId": 117,
      "outputId": 0,
      "inputModuleId": 115,
      "inputId": 5,
      "color": "#0c8e15"
    }
  ]
}